<svg width="152" height="152" viewBox="0 0 152 152" fill="none" xmlns="http://www.w3.org/2000/svg">
<circle cx="76" cy="76" r="75.5" fill="white" stroke="#A3A3A3"/>
<path d="M72.8334 84.4444C71.9936 84.4444 71.1881 84.1108 70.5942 83.5169C70.0004 82.9231 69.6667 82.1176 69.6667 81.2778C69.6667 80.4379 70.0004 79.6324 70.5942 79.0386C71.1881 78.4447 71.9936 78.1111 72.8334 78.1111C73.6733 78.1111 74.4787 78.4447 75.0726 79.0386C75.6665 79.6324 76.0001 80.4379 76.0001 81.2778C76.0001 82.1176 75.6665 82.9231 75.0726 83.5169C74.4787 84.1108 73.6733 84.4444 72.8334 84.4444Z" fill="#A20303"/>
<path fill-rule="evenodd" clip-rule="evenodd" d="M45.239 67.5556C45.65 67.5556 46.0518 67.5218 46.4444 67.4542V84.4444H41.1667C40.8867 84.4444 40.6182 84.5557 40.4203 84.7536C40.2223 84.9516 40.1111 85.2201 40.1111 85.5V87.6111C40.1111 87.8911 40.2223 88.1595 40.4203 88.3575C40.6182 88.5555 40.8867 88.6667 41.1667 88.6667H110.833C111.113 88.6667 111.382 88.5555 111.58 88.3575C111.778 88.1595 111.889 87.8911 111.889 87.6111V85.5C111.889 85.2201 111.778 84.9516 111.58 84.7536C111.382 84.5557 111.113 84.4444 110.833 84.4444H105.556V67.4542C105.95 67.5218 106.351 67.5556 106.761 67.5556C110.776 67.5556 114 64.2791 114 60.2743V55.2288C114.002 54.5592 113.885 53.8946 113.656 53.2654L109.054 40.5777C108.781 39.8225 108.281 39.1698 107.624 38.7086C106.967 38.2473 106.183 37.9999 105.38 38H46.6176C45.815 38.0009 45.0323 38.2491 44.3758 38.7107C43.7192 39.1723 43.2209 39.8249 42.9484 40.5798L38.3462 53.2654C38.1164 53.8945 37.9992 54.5591 38 55.2288V60.2743C38 64.2791 41.2237 67.5556 45.239 67.5556ZM42.3151 54.7052L46.8434 42.2222H105.154L109.683 54.7052C109.745 54.8741 109.776 55.0486 109.776 55.2288V60.2743C109.781 61.0799 109.466 61.8545 108.9 62.428C108.335 63.0016 107.564 63.3272 106.759 63.3333C105.112 63.3333 103.744 61.9822 103.744 60.2743C103.744 59.7144 103.522 59.1775 103.126 58.7816C102.73 58.3856 102.193 58.1632 101.633 58.1632C101.073 58.1632 100.536 58.3856 100.14 58.7816C99.7444 59.1775 99.522 59.7144 99.522 60.2743C99.5271 61.0799 99.2122 61.8545 98.6466 62.428C98.0809 63.0016 97.3108 63.3272 96.5052 63.3333C94.8586 63.3333 93.4906 61.9822 93.4906 60.2764C93.4906 59.7165 93.2681 59.1796 92.8722 58.7837C92.4763 58.3878 91.9394 58.1653 91.3794 58.1653C90.8195 58.1653 90.2826 58.3878 89.8867 58.7837C89.4908 59.1796 89.2683 59.7165 89.2683 60.2764C89.2683 61.9822 87.9003 63.3333 86.2516 63.3333C84.6028 63.3333 83.2369 61.9822 83.2369 60.2743C83.2369 59.7144 83.0145 59.1775 82.6186 58.7816C82.2227 58.3856 81.6857 58.1632 81.1258 58.1632C80.5659 58.1632 80.0289 58.3856 79.633 58.7816C79.2371 59.1775 79.0147 59.7144 79.0147 60.2743C79.0197 61.0795 78.7052 61.8538 78.14 62.4273C77.5748 63.0008 76.8052 63.3266 76 63.3333C75.1948 63.3272 74.425 63.0019 73.8594 62.4288C73.2938 61.8557 72.9787 61.0816 72.9832 60.2764C72.9832 59.7165 72.7608 59.1796 72.3649 58.7837C71.969 58.3878 71.432 58.1653 70.8721 58.1653C70.3122 58.1653 69.7752 58.3878 69.3793 58.7837C68.9834 59.1796 68.761 59.7165 68.761 60.2764C68.761 61.9822 67.3951 63.3333 65.7463 63.3333C64.0976 63.3333 62.7296 61.9822 62.7296 60.2743C62.7296 59.7144 62.5071 59.1775 62.1112 58.7816C61.7153 58.3856 61.1784 58.1632 60.6185 58.1632C60.0585 58.1632 59.5216 58.3856 59.1257 58.7816C58.7298 59.1775 58.5073 59.7144 58.5073 60.2743C58.5073 61.9801 57.1414 63.3333 55.4927 63.3333C53.8439 63.3333 52.4759 61.9822 52.4759 60.2743C52.4759 59.7144 52.2535 59.1775 51.8576 58.7816C51.4617 58.3856 50.9247 58.1632 50.3648 58.1632C49.8049 58.1632 49.2679 58.3856 48.872 58.7816C48.4761 59.1775 48.2537 59.7144 48.2537 60.2743C48.2537 61.9801 46.8878 63.3333 45.239 63.3333C43.5881 63.3333 42.2222 61.9822 42.2222 60.2743V55.2288C42.2222 55.0472 42.2532 54.8727 42.3151 54.7052ZM101.333 65.702C100.011 66.8978 98.2904 67.5586 96.5073 67.5556C95.5536 67.5572 94.6091 67.3687 93.729 67.0012C92.8489 66.6336 92.0509 66.0944 91.3816 65.4149C90.712 66.0946 89.9136 66.634 89.0332 67.0016C88.1527 67.3691 87.2078 67.5575 86.2537 67.5556C85.2999 67.5572 84.3554 67.3687 83.4753 67.0012C82.5952 66.6336 81.7972 66.0944 81.1279 65.4149C80.4583 66.0946 79.66 66.634 78.7795 67.0016C77.899 67.3691 76.9541 67.5575 76 67.5556C75.0459 67.5575 74.101 67.3691 73.2205 67.0016C72.34 66.634 71.5417 66.0946 70.8721 65.4149C70.2028 66.0944 69.4048 66.6336 68.5247 67.0012C67.6446 67.3687 66.7001 67.5572 65.7463 67.5556C63.7387 67.5556 61.9252 66.7343 60.6185 65.4149C59.9491 66.0944 59.1511 66.6336 58.271 67.0012C57.3909 67.3687 56.4464 67.5572 55.4927 67.5556C53.6349 67.5556 51.946 66.8526 50.6667 65.702V84.4444H55.9444C55.6645 84.4444 55.396 84.3332 55.1981 84.1353C55.0001 83.9373 54.8889 83.6688 54.8889 83.3889V79.1667C54.8889 78.8867 55.0001 78.6182 55.1981 78.4203C55.396 78.2223 55.6645 78.1111 55.9444 78.1111H62.2778C62.5577 78.1111 62.8262 78.2223 63.0242 78.4203C63.2221 78.6182 63.3333 78.8867 63.3333 79.1667V80.2222H66.5C66.78 80.2222 67.0484 80.3334 67.2464 80.5314C67.4444 80.7293 67.5556 80.9978 67.5556 81.2778V83.3889C67.5556 83.6688 67.4444 83.9373 67.2464 84.1353C67.0484 84.3332 66.78 84.4444 66.5 84.4444H101.333V65.702ZM42.2222 95C42.2222 94.4401 42.4446 93.9031 42.8406 93.5072C43.2365 93.1113 43.7734 92.8889 44.3333 92.8889H107.667C108.227 92.8889 108.764 93.1113 109.159 93.5072C109.555 93.9031 109.778 94.4401 109.778 95V111.889C109.778 112.449 109.555 112.986 109.159 113.382C108.764 113.778 108.227 114 107.667 114H44.3333C43.7734 114 43.2365 113.778 42.8406 113.382C42.4446 112.986 42.2222 112.449 42.2222 111.889V95ZM46.4444 109.778V97.1111H105.556V109.778H46.4444Z" fill="#A20303"/>
</svg>
