<svg width="152" height="152" viewBox="0 0 152 152" fill="none" xmlns="http://www.w3.org/2000/svg">
<circle cx="76" cy="76" r="75.5" fill="white" stroke="#A3A3A3"/>
<path d="M64.9659 42.4544C65.9034 41.5232 67.1749 41 68.5006 41C69.8263 41 71.0978 41.5232 72.0353 42.4544L75.2701 45.6635C75.7395 46.1298 76.0032 46.7624 76.0032 47.422C76.0032 48.0815 75.7395 48.7141 75.2701 49.1805C74.8007 49.6469 74.164 49.9089 73.5002 49.9089C72.8364 49.9089 72.1997 49.6469 71.7303 49.1805L68.5006 45.9665L46.0024 68.3204V99.5811C46.0024 100.24 46.2657 100.872 46.7345 101.337C47.2033 101.803 47.8392 102.065 48.5022 102.065C49.1652 102.065 49.801 102.327 50.2698 102.792C50.7386 103.258 51.002 103.89 51.002 104.549C51.002 105.207 50.7386 105.839 50.2698 106.305C49.801 106.771 49.1652 107.032 48.5022 107.032C46.5132 107.032 44.6057 106.247 43.1993 104.85C41.7929 103.453 41.0028 101.557 41.0028 99.5811V73.288L40.2728 74.0182C39.8034 74.4846 39.1668 74.7466 38.503 74.7466C37.8391 74.7466 37.2025 74.4846 36.7331 74.0182C36.2637 73.5518 36 72.9192 36 72.2597C36 71.6001 36.2637 70.9676 36.7331 70.5012L64.9659 42.4544ZM79.9647 47.422C80.9023 46.4907 82.1737 45.9675 83.4994 45.9675C84.8251 45.9675 86.0966 46.4907 87.0341 47.422L95.9984 56.3288V49.9057C95.9984 49.247 96.2618 48.6152 96.7306 48.1494C97.1994 47.6837 97.8352 47.422 98.4982 47.422H103.498C104.161 47.422 104.797 47.6837 105.265 48.1494C105.734 48.6152 105.998 49.247 105.998 49.9057V66.2639L115.267 75.4687C115.736 75.9351 116 76.5676 116 77.2272C116 77.8868 115.736 78.5193 115.267 78.9857C114.798 79.4521 114.161 79.7141 113.497 79.7141C112.833 79.7141 112.197 79.4521 111.727 78.9857L110.997 78.2555V104.549C110.997 106.525 110.207 108.42 108.801 109.818C107.394 111.215 105.487 112 103.498 112H63.501C61.512 112 59.6045 111.215 58.1981 109.818C56.7917 108.42 56.0016 106.525 56.0016 104.549V78.2555L55.2716 78.9857C55.0392 79.2167 54.7633 79.3998 54.4596 79.5248C54.1559 79.6498 53.8305 79.7141 53.5018 79.7141C53.1731 79.7141 52.8476 79.6498 52.5439 79.5248C52.2403 79.3998 51.9643 79.2167 51.7319 78.9857C51.4995 78.7548 51.3151 78.4806 51.1893 78.1789C51.0636 77.8772 50.9988 77.5538 50.9988 77.2272C50.9988 76.9006 51.0636 76.5772 51.1893 76.2755C51.3151 75.9738 51.4995 75.6996 51.7319 75.4687L79.9647 47.422ZM83.4994 50.934L61.0012 73.288V104.549C61.0012 105.207 61.2646 105.839 61.7334 106.305C62.2022 106.771 62.838 107.032 63.501 107.032H103.498C104.161 107.032 104.797 106.771 105.265 106.305C105.734 105.839 105.998 105.207 105.998 104.549V73.288L83.4994 50.934Z" fill="#970176"/>
</svg>
