<svg width="152" height="152" viewBox="0 0 152 152" fill="none" xmlns="http://www.w3.org/2000/svg">
<circle cx="76" cy="76" r="75.5" fill="white" stroke="#A3A3A3"/>
<path d="M109.723 31H64.5911C59.6131 31 55.5648 35.0483 55.5648 40.0263V65.2368L34.3214 86.4802C33.6904 87.1113 33.2607 87.9154 33.0867 88.7907C32.9126 89.6661 33.002 90.5734 33.3435 91.3979C33.685 92.2225 34.2633 92.9273 35.0053 93.4232C35.7473 93.9191 36.6197 94.1839 37.5122 94.1841V116.75C37.5122 117.947 37.9877 119.095 38.8341 119.941C39.6804 120.788 40.8284 121.263 42.0253 121.263H114.236C115.433 121.263 116.581 120.788 117.427 119.941C118.273 119.095 118.749 117.947 118.749 116.75V40.0263C118.749 35.0483 114.701 31 109.723 31ZM73.6174 112.237H46.5385V87.0262L60.0779 73.4868L73.6174 87.0262V112.237ZM109.723 112.237H82.6437V94.1841C83.5371 94.1861 84.411 93.9226 85.1544 93.427C85.8978 92.9314 86.4773 92.2262 86.8191 91.4007C87.161 90.5753 87.2499 89.6669 87.0746 88.7908C86.8993 87.9147 86.4677 87.1105 85.8345 86.4802L64.5911 65.2368V40.0263H109.723V112.237Z" fill="#970176"/>
<path d="M73.6174 49.0526H82.6437V58.0789H73.6174V49.0526ZM91.67 49.0526H100.696V58.0789H91.67V49.0526ZM91.67 67.2451H100.696V76.1315H91.67V67.2451ZM91.67 85.1578H100.696V94.1841H91.67V85.1578ZM55.5648 89.671H64.5911V98.6973H55.5648V89.671Z" fill="#970176"/>
</svg>
