<svg width="150" height="150" viewBox="0 0 150 150" fill="none" xmlns="http://www.w3.org/2000/svg">
<circle cx="75" cy="75" r="74.5" fill="white" stroke="#A3A3A3"/>
<path d="M101.639 59.1619C101.104 66.5966 95.5886 72.3238 89.5743 72.3238C83.5601 72.3238 78.0357 66.5984 77.5092 59.1619C76.9608 51.4275 82.3298 46 89.5743 46C96.8189 46 102.188 51.5682 101.639 59.1619Z" stroke="#970176" stroke-width="6" stroke-linecap="round" stroke-linejoin="round"/>
<path d="M89.5743 84.0234C77.661 84.0234 66.2046 89.9408 63.3346 101.465C62.9544 102.989 63.9104 104.498 65.4771 104.498H113.673C115.24 104.498 116.191 102.989 115.816 101.465C112.946 89.7562 101.49 84.0234 89.5743 84.0234Z" stroke="#970176" stroke-width="6" stroke-miterlimit="10"/>
<path d="M64.713 62.4413C64.2852 68.3788 59.8285 73.0549 55.0244 73.0549C50.2203 73.0549 45.7562 68.3806 45.3357 62.4413C44.8988 56.2643 49.2368 51.8496 55.0244 51.8496C60.812 51.8496 65.1499 56.3777 64.713 62.4413Z" stroke="#970176" stroke-width="6" stroke-linecap="round" stroke-linejoin="round"/>
<path d="M65.8098 84.389C62.5102 82.8772 58.876 82.2959 55.0243 82.2959C45.5185 82.2959 36.36 87.0214 34.0658 96.2256C33.7641 97.4431 34.5283 98.6478 35.7786 98.6478H56.3039" stroke="#970176" stroke-width="6" stroke-miterlimit="10" stroke-linecap="round"/>
</svg>
