<svg width="152" height="152" viewBox="0 0 152 152" fill="none" xmlns="http://www.w3.org/2000/svg">
<circle cx="76" cy="76" r="75.5" fill="white" stroke="#A3A3A3"/>
<path d="M91.3235 62.1538C91.3235 66.0709 89.7618 69.8275 86.9818 72.5973C84.2019 75.367 80.4314 76.9231 76.5 76.9231C72.5686 76.9231 68.7981 75.367 66.0182 72.5973C63.2382 69.8275 61.6765 66.0709 61.6765 62.1538M91.3235 62.1538H61.6765M91.3235 62.1538C91.3235 58.2368 89.7618 54.4802 86.9818 51.7104C84.2019 48.9407 80.4314 47.3846 76.5 47.3846M61.6765 62.1538C61.6765 58.2368 63.2382 54.4802 66.0182 51.7104C68.7981 48.9407 72.5686 47.3846 76.5 47.3846M76.5 47.3846V40M54.2647 62.1538H98.7353M65.3824 95.3846V102.769M87.6176 95.3846V102.769M76.5 82.4615C59.1027 82.4615 45 95.6855 45 112H108C108 95.6855 93.8973 82.4615 76.5 82.4615Z" stroke="#662D91" stroke-width="5" stroke-linecap="round" stroke-linejoin="round"/>
</svg>
