<svg width="111" height="78" viewBox="0 0 111 78" fill="none" xmlns="http://www.w3.org/2000/svg">
<path d="M108.55 12.2144C107.914 9.85351 106.672 7.70122 104.948 5.97178C103.225 4.24234 101.08 2.9961 98.7267 2.35716C90.1128 0 55.4446 0 55.4446 0C55.4446 0 20.7748 0.0713499 12.1609 2.42851C9.80792 3.06749 7.66287 4.31379 5.93931 6.04331C4.21574 7.77283 2.97381 9.92522 2.33719 12.2861C-0.268316 27.6429 -1.27904 51.0432 2.40874 65.7857C3.04543 68.1465 4.28738 70.2988 6.01094 72.0282C7.7345 73.7577 9.87952 75.0039 12.2324 75.6428C20.8463 78 55.5153 78 55.5153 78C55.5153 78 90.1839 78 98.7974 75.6428C101.15 75.004 103.295 73.7578 105.019 72.0283C106.743 70.2989 107.985 68.1465 108.621 65.7857C111.37 50.4071 112.216 27.0212 108.55 12.2144Z" fill="#FF0000"/>
<path d="M44 55L73 38.5L44 22V55Z" fill="white"/>
</svg>
